<?xml version="1.0" encoding="UTF-8"?>
<svg width="22px" height="22px" viewBox="0 0 22 22" version="1.1" xmlns="http://www.w3.org/2000/svg" xmlns:xlink="http://www.w3.org/1999/xlink">
    <title>help-center-on</title>
    <g id="Page-1" stroke="none" stroke-width="1" fill="none" fill-rule="evenodd">
        <g id="help-center-on" fill="#688DB6" fill-rule="nonzero">
            <path d="M11,0 C4.92486775,0 0,4.92486775 0,11 C0,17.0751323 4.92486775,22 11,22 C17.0751323,22 22,17.0751323 22,11 C22,8.08261861 20.8410747,5.28472557 18.7781746,3.2218254 C16.7152744,1.15892525 13.9173814,0 11,0 Z M12.1858,16.4648 C12.1858,16.7272457 11.9730457,16.94 11.7106,16.94 L9.8714,16.94 C9.60895426,16.94 9.3962,16.7272457 9.3962,16.4648 L9.3962,14.9248 C9.3962,14.6623543 9.60895426,14.4496 9.8714,14.4496 L11.7106,14.4496 C11.9730457,14.4496 12.1858,14.6623543 12.1858,14.9248 L12.1858,16.4648 Z M13.9106,10.8702 C13.6598,11.0484 13.3848,11.1936 13.123,11.3608 C12.683,11.6446 12.32,11.9966 12.243,12.5554 C12.2144,12.7468 12.0692,12.8216 11.8822,12.8216 L10.8482,12.8216 C10.5116,12.8216 10.1772,12.8216 9.8406,12.8216 C9.5612,12.8216 9.4622,12.6984 9.4358,12.4256 C9.3324,11.407 9.8538,10.7206 10.6194,10.164 C10.8394,9.999 11.1056,9.8736 11.3476,9.724 C11.5463565,9.62200178 11.7375167,9.50583518 11.9196,9.3764 C12.1494648,9.20684661 12.2827378,8.93627551 12.2770525,8.65069912 C12.2713673,8.36512274 12.127431,8.1000703 11.891,7.9398 C11.2316004,7.44840972 10.3132985,7.50708418 9.7218,8.0784 C9.471,8.3336 9.24,8.6086 9.02,8.8792 C8.9698777,8.9671535 8.88122438,9.02633092 8.78077344,9.03888723 C8.68032243,9.05144361 8.57983014,9.01590944 8.5096,8.943 L7.1522,7.942 C6.875,7.7374 6.853,7.6296 7.0378,7.3304 C7.7396,6.1952 8.7032,5.4252 10.0342,5.1634 C11.5478,4.8642 12.8942,5.2118 14.0118,6.2744 C14.6385215,6.81722762 15.0226123,7.58778506 15.0788,8.415 C15.1629253,9.38459591 14.7160196,10.3238553 13.9106,10.8702 L13.9106,10.8702 Z" id="Shape"></path>
        </g>
    </g>
</svg>