<?xml version="1.0" encoding="UTF-8"?>
<svg width="20px" height="22px" viewBox="0 0 20 22" version="1.1" xmlns="http://www.w3.org/2000/svg" xmlns:xlink="http://www.w3.org/1999/xlink">
    <title>lookup-on</title>
    <g id="Page-1" stroke="none" stroke-width="1" fill="none" fill-rule="evenodd">
        <g id="lookup-on" fill="#688DB6" fill-rule="nonzero">
            <path d="M19.6875,7.959479 C19.8125,7.959479 20,7.76845148 20,7.64109986 L20,5.09406657 C20,4.96671491 19.8125,4.77568741 19.6875,4.77568741 L18.4375,4.77568741 L18.4375,1.91027497 C18.4375,1.36903039 18.28125,0.95513748 17.90625,0.57308249 C17.53125,0.191027497 17.0625,0 16.5625,0 L1.9375,0 C1.40625,0 0.96875,0.191027497 0.59375,0.57308249 C0.1875,0.95513748 0,1.43270622 0,1.9739508 L0,20.0260492 C0,20.5672938 0.1875,21.0130246 0.5625,21.4269175 C0.9375,21.8089725 1.40625,22 1.90625,22 L16.53125,22 C17.0625,22 17.5,21.8089725 17.875,21.4269175 C18.28125,21.0130246 18.4375,20.5991317 18.4375,20.0578871 L18.4375,17.1924747 L19.6875,17.1924747 C19.8125,17.1924747 20,16.9696093 20,16.8740955 L20,14.6454414 C20,14.5180897 19.8125,14.3270622 19.6875,14.3270622 L18.4375,14.3270622 L18.4375,12.4167873 L19.6875,12.4167873 C19.8125,12.4167873 20,12.2257597 20,12.0984081 L20,9.86975394 C20,9.74240232 20,9.5513748 19.6875,9.5513748 L18.4375,9.5513748 L18.4375,7.959479 L19.6875,7.959479 Z M7.03125,5.63531114 C7.65625,4.99855282 8.375,4.71201158 9.25,4.71201158 C10.09375,4.71201158 10.84375,5.03039074 11.46875,5.63531114 C12.09375,6.27206946 12.375,7.00434154 12.375,7.89580319 C12.375,8.75542694 12.0625,9.51953693 11.46875,10.1244573 C10.84375,10.7612156 10.125,11.0477568 9.25,11.0477568 C8.40625,11.0477568 7.65625,10.7293777 7.03125,10.1244573 C6.40625,9.48769899 6.125,8.75542694 6.125,7.89580319 C6.09375,7.00434154 6.40625,6.27206946 7.03125,5.63531114 Z M13.9375,16.6512301 C13.59375,17.0332851 13.1875,17.2561505 12.6875,17.2561505 L5.78125,17.2561505 C5.28125,17.2561505 4.875,17.065123 4.53125,16.6512301 C4.1875,16.2691751 4.03125,15.7597684 4.03125,15.1548481 C4.03125,14.6772793 4.0625,14.2633864 4.09375,13.8494935 C4.125,13.4356006 4.21875,13.0217077 4.34375,12.6078148 C4.46875,12.1939219 4.625,11.8437048 4.8125,11.5571635 C5,11.2706223 5.25,11.015919 5.59375,10.8567294 C5.90625,10.6657019 6.28125,10.5701881 6.6875,10.5701881 C6.75,10.6020261 6.875,10.6975398 7.09375,10.8248915 C7.3125,10.9522432 7.5,11.0477568 7.59375,11.1114327 C7.71875,11.1751085 7.875,11.2706223 8.09375,11.3661361 C8.3125,11.4616498 8.5,11.5253256 8.6875,11.5890014 C8.875,11.6208394 9.0625,11.6526773 9.25,11.6526773 C9.4375,11.6526773 9.625,11.6208394 9.8125,11.5890014 C10,11.5571635 10.1875,11.4934877 10.40625,11.3661361 C10.625,11.2706223 10.78125,11.1751085 10.90625,11.1114327 C11.03125,11.0477568 11.1875,10.9522432 11.40625,10.8248915 C11.625,10.6975398 11.75,10.6020261 11.8125,10.5701881 C12.21875,10.5701881 12.59375,10.6657019 12.90625,10.8567294 C13.21875,11.0477568 13.46875,11.2706223 13.6875,11.5571635 C13.875,11.8437048 14.03125,12.1939219 14.15625,12.6078148 C14.28125,13.0217077 14.375,13.4356006 14.40625,13.8494935 C14.4375,14.2633864 14.46875,14.7091172 14.46875,15.1548481 C14.4375,15.7597684 14.28125,16.2691751 13.9375,16.6512301 Z" id="Shape"></path>
        </g>
    </g>
</svg>