<?xml version="1.0" encoding="UTF-8"?>
<svg width="17px" height="21px" viewBox="0 0 17 21" version="1.1" xmlns="http://www.w3.org/2000/svg" xmlns:xlink="http://www.w3.org/1999/xlink">
    <title>ticket-off</title>
    <g id="Page-1" stroke="none" stroke-width="1" fill="none" fill-rule="evenodd" opacity="0.600539435">
        <g id="ticket-off" fill="#688DB6" fill-rule="nonzero">
            <g id="noun-form-3542491">
                <path d="M3.19294797,0 C1.44555077,0 0,1.42079662 0,3.14825669 L0,17.8517432 C0,19.5792028 1.44555077,21 3.19294797,21 L13.809134,21 C15.5565313,21 17,19.5792028 17,17.8517432 L17,3.14825669 C17,1.42079662 15.5565313,0 13.809134,0 L3.19294797,0 Z M5.31743013,4.20039418 L11.6846518,4.20039418 C11.9663752,4.19932207 12.236997,4.30891435 12.436983,4.50507775 C12.636969,4.70124116 12.7499372,4.96790684 12.7510518,5.24641083 C12.7521438,5.52633648 12.640149,5.79511346 12.4399227,5.99305291 C12.2396964,6.19099237 11.9678133,6.30170898 11.6846518,6.3006313 L5.31743013,6.3006313 C5.03426686,6.30171179 4.76238095,6.19099641 4.56215237,5.99305665 C4.36192379,5.79511689 4.24992758,5.52633831 4.25101951,5.24641083 C4.25213417,4.96790501 4.36510386,4.70123774 4.56509216,4.50507403 C4.76508046,4.30891032 5.03570498,4.19931928 5.31743013,4.20039418 Z M5.31743013,8.40080423 L8.5,8.40080423 C9.08342152,8.4030714 9.55581294,8.87006648 9.55812392,9.44682113 C9.55974245,9.7256799 9.44912885,9.9937377 9.25063884,10.1918839 C9.05214891,10.3900301 8.78208492,10.5019905 8.5,10.5030923 L5.31743013,10.5030923 C5.03390554,10.5041768 4.76170194,10.3931806 4.56141275,10.1947958 C4.36112357,9.996411 4.24937249,9.7271031 4.25099948,9.44682113 C4.25213412,9.1683153 4.36510378,8.90164793 4.56509209,8.70548423 C4.76508039,8.50932045 5.03570494,8.39972933 5.31743013,8.40080423 L5.31743013,8.40080423 Z M11.6846518,8.40080434 C11.9663752,8.39973217 12.2369971,8.5093245 12.4369831,8.7054879 C12.6369691,8.90165137 12.7499372,9.1683171 12.7510719,9.44682112 C12.7526989,9.7271013 12.6409492,9.99640755 12.4406624,10.1947921 C12.2403755,10.3931765 11.9681746,10.504174 11.6846518,10.5030922 C11.4025651,10.5019933 11.1324984,10.3900341 10.9340061,10.1918876 C10.7355138,9.99374107 10.6248988,9.7256817 10.6265173,9.44682112 C10.6288283,8.87006242 11.1012262,8.40306562 11.6846518,8.40080434 L11.6846518,8.40080434 Z M5.31743013,12.6032653 L11.6846518,12.6032653 C11.9663752,12.6021932 12.2369971,12.7117855 12.4369831,12.907949 C12.6369691,13.1041124 12.7499372,13.3707781 12.7510357,13.6492822 C12.7499372,13.9277862 12.6369691,14.1944519 12.4369831,14.3906154 C12.2369971,14.5867788 11.9663752,14.6963711 11.6846518,14.695299 L5.31743013,14.695299 C5.03570494,14.6963739 4.76508039,14.5867828 4.56509209,14.3906191 C4.36510378,14.1944554 4.25213412,13.927788 4.25103568,13.6492822 C4.25213412,13.3707763 4.36510378,13.104109 4.56509209,12.9079452 C4.76508039,12.7117815 5.03570494,12.6021904 5.31743013,12.6032653 L5.31743013,12.6032653 Z" id="Shape"></path>
            </g>
        </g>
    </g>
</svg>